<svg xmlns="http://www.w3.org/2000/svg" viewBox="0 0 99.29 30.95"><path d="M71.14 12.38c0 6.84-5.54 12.37-12.38 12.37-6.83 0-12.37-5.54-12.37-12.37C46.38 5.54 51.92 0 58.76 0c6.84 0 12.38 5.54 12.38 12.38M58.77 3.92c-4.31 0-7.32 3.17-7.32 8.44 0 5.31 3.01 8.47 7.32 8.47 4.28 0 7.29-3.16 7.29-8.47 0-5.13-2.87-8.44-7.29-8.44M3.22 30.95c-1.09 0-2.31-.22-3.22-.55l.98-3.41c.62.25 1.26.2 1.99.2 2.38 0 2.71-1.87 2.71-4.72V.27l4.6-.04v23.23c0 4.49-1.8 7.49-7.06 7.49M17.73 19.5c-1.42 0-2.56-1.13-2.56-2.6 0-1.51 1.14-2.64 2.56-2.64 1.39 0 2.53 1.13 2.53 2.64-.01 1.47-1.15 2.6-2.53 2.6m0-8.5c-1.42 0-2.56-1.14-2.56-2.6 0-1.5 1.14-2.64 2.56-2.64 1.39 0 2.53 1.14 2.53 2.64-.01 1.46-1.15 2.6-2.53 2.6m77.13 13.33V10c0-.88 0-1.65.07-2.6h-.04c-.32.77-1.05 1.9-1.46 2.49l-4.94 7.76h-2.2l-5.41-7.87c-.48-.66-.99-1.34-1.46-2.38h-.08c.08.99.08 1.76.08 2.49v14.45h-4.44V.23h4.14l6.66 9.65c.69.99 1.16 1.76 1.61 2.56h.07c.37-.77.8-1.61 1.51-2.67L95.11.23h4.17v24.1h-4.42zm-58.49.66c-7.86 0-12.31-5.37-12.31-12.17C24.06 5.91 29.24.28 37.47.28c2.44 0 4.71.47 6.28 1.28l-.15 4.1c-2.21-1.29-3.91-1.63-5.9-1.63-5.91 0-8.51 4.13-8.51 8.47 0 4.82 3.09 8.6 8.05 8.6 2.33 0 4.32-.65 6.27-1.71l1.05 3.15c-2.82 1.75-5.48 2.45-8.19 2.45" fill="#dc3a1f"/></svg>